# xmcd
#
# Track frame offsets: 
#        150
#        36176
#        65402
#        79467
#        97562
#        113357
#        139682
#        150473
#        174324
#        190185
#        207320
#        222344
#        228740
#        251949
#        276910
#        288572
#        305993
#
# Disc length: 4331 seconds
#
# Revision: 0
# Processed by: cddbd v1.5.2PL0 Copyright (c) Steve Scherf et al.
# Submitted via: ExactAudioCopy v0.95b3
#
DISCID=f910e911
DTITLE=Va  - The Greatest Classics - Disc 1  FLAC
DYEAR=1900
DGENRE=
TTITLE0=Holst - Mars, The Bringer Of War From The Planets
TTITLE1=Elgar - Pomp and Circumstance March No.1
TTITLE2=Vivaldi - Spring From The Four Seasons
TTITLE3=Tchaikovsky - 1812 Overture
TTITLE4=Rossini - William Tell Overture
TTITLE5=Mozart - Eine Kleine Nachtmuzik
TTITLE6=Tchaikovsky - Swan Lake
TTITLE7=Elgar - Cello Concerto In E Minor
TTITLE8=Bach - Jesu, Joy Of Man's Desiring
TTITLE9=Strauss - On The Beautiful Blue Danube
TTITLE10=Handel - Alla Hornpipe From Water Music
TTITLE11=Rimsky-Korsakov - The Flight Of The Bumble-Bee
TTITLE12=Ravel - Bolero
TTITLE13=Wagner - Ride Of The Valkyries
TTITLE14=Orff - O Fortuna From Carmina Burana
TTITLE15=Beethoven - Ode To Joy
TTITLE16=Puccini - Nessun Dorma
EXTD=
EXTT0=
EXTT1=
EXTT2=
EXTT3=
EXTT4=
EXTT5=
EXTT6=
EXTT7=
EXTT8=
EXTT9=
EXTT10=
EXTT11=
EXTT12=
EXTT13=
EXTT14=
EXTT15=
EXTT16=
PLAYORDER=
